<svg xmlns="http://www.w3.org/2000/svg" width="64" height="64" fill="none" viewBox="0 0 64 64"><path fill="#24292E" fill-rule="evenodd" d="M32.0001 0C14.3292 0 0 14.6889 0 32.8099C0 47.3062 9.16907 59.6048 21.8836 63.9434C23.4827 64.247 24.07 63.2313 24.07 62.3649C24.07 61.5829 24.0406 58.9978 24.0267 56.2562C15.1243 58.2412 13.2458 52.385 13.2458 52.385C11.79 48.5929 9.69285 47.5842 9.69285 47.5842C6.7892 45.5478 9.91172 45.5898 9.91172 45.5898C13.1247 45.8212 14.817 48.9715 14.817 48.9715C17.671 53.9871 22.3029 52.5368 24.1292 51.6985C24.4165 49.5782 25.2454 48.1303 26.1608 47.3111C19.0531 46.4817 11.5811 43.6681 11.5811 31.0962C11.5811 27.5144 12.8313 24.5874 14.8785 22.2896C14.5463 21.4629 13.4509 18.126 15.1886 13.6064C15.1886 13.6064 17.8759 12.7251 23.9904 16.9701C26.5432 16.243 29.2808 15.8784 32.0002 15.8658C34.7195 15.8784 37.4591 16.243 40.0164 16.9701C46.1243 12.7251 48.8078 13.6064 48.8078 13.6064C50.5495 18.126 49.454 21.4629 49.1218 22.2896C51.1737 24.5874 52.4151 27.5142 52.4151 31.0962C52.4151 43.6983 44.9291 46.4726 37.8032 47.285C38.9509 48.3033 39.9734 50.2999 39.9734 53.3609C39.9734 57.7509 39.9368 61.2841 39.9368 62.3649C39.9368 63.2382 40.5126 64.2614 42.1345 63.9393C54.8425 59.5959 64 47.3015 64 32.8099C64 14.6889 49.6727 0 32.0001 0Z" clip-rule="evenodd"/><path fill="#24292E" d="M12.1202 47.1077C12.0498 47.2712 11.7993 47.32 11.5716 47.2081C11.3393 47.101 11.2094 46.8786 11.2844 46.7152C11.3532 46.5473 11.6036 46.5007 11.8355 46.6127C12.0679 46.72 12.2005 46.9443 12.1202 47.1077Z"/><path fill="#24292E" d="M13.4165 48.5903C13.2639 48.735 12.9652 48.6677 12.7627 48.4386C12.5532 48.2097 12.5145 47.9036 12.6693 47.7568C12.8267 47.6118 13.116 47.6796 13.3254 47.9085C13.5351 48.1399 13.5759 48.4434 13.4165 48.5903Z"/><path fill="#24292E" d="M14.6782 50.4797C14.482 50.6198 14.1612 50.4885 13.9629 50.1968C13.7667 49.9049 13.7668 49.5549 13.9675 49.4146C14.1658 49.2746 14.4821 49.4008 14.6828 49.6901C14.8785 49.9869 14.8784 50.3371 14.6782 50.4797Z"/><path fill="#24292E" d="M16.4066 52.3055C16.2311 52.5039 15.8574 52.4502 15.5843 52.1797C15.3043 51.9154 15.2266 51.5399 15.402 51.3414C15.5802 51.1429 15.9558 51.1985 16.231 51.4671C16.5089 51.7312 16.5933 52.109 16.4066 52.3055Z"/><path fill="#24292E" d="M18.7912 53.3655C18.7136 53.6222 18.354 53.739 17.9917 53.6298C17.6295 53.5172 17.393 53.2164 17.4659 52.9569C17.5409 52.6981 17.9025 52.5766 18.2673 52.6933C18.6292 52.8052 18.8661 53.1039 18.7912 53.3655Z"/><path fill="#24292E" d="M21.4102 53.5619C21.4189 53.8324 21.1115 54.057 20.7312 54.0618C20.3487 54.0707 20.0387 53.8517 20.0347 53.5853C20.0347 53.312 20.3351 53.0901 20.7177 53.0833C21.098 53.0759 21.4102 53.2933 21.4102 53.5619Z"/><path fill="#24292E" d="M23.8471 53.1368C23.8926 53.4006 23.628 53.6717 23.2501 53.7439C22.8787 53.8139 22.5352 53.6505 22.4876 53.3889C22.4416 53.1183 22.7105 52.8472 23.0817 52.7771C23.46 52.7097 23.7989 52.8683 23.8471 53.1368Z"/></svg>