<svg xmlns="http://www.w3.org/2000/svg" width="64" height="64" fill="none" viewBox="0 0 64 64"><path fill="url(#paint0_radial)" d="M11.2 64H52.8C58.9856 64 64 58.9856 64 52.8L64 11.2C64 5.01441 58.9856 0 52.8 0L11.2 0C5.01441 0 0 5.01441 0 11.2V52.8C0 58.9856 5.01441 64 11.2 64Z"/><path fill="#fff" d="M44 56H20C16.8174 56 13.7652 54.7357 11.5147 52.4853C9.26428 50.2348 8 47.1826 8 44V20C8 16.8174 9.26428 13.7652 11.5147 11.5147C13.7652 9.26428 16.8174 8 20 8H44C47.1826 8 50.2348 9.26428 52.4853 11.5147C54.7357 13.7652 56 16.8174 56 20V44C56 47.1826 54.7357 50.2348 52.4853 52.4853C50.2348 54.7357 47.1826 56 44 56V56ZM20 12.8C18.0913 12.8026 16.2614 13.5621 14.9118 14.9118C13.5621 16.2614 12.8026 18.0913 12.8 20V44C12.8026 45.9087 13.5621 47.7386 14.9118 49.0882C16.2614 50.4379 18.0913 51.1974 20 51.2H44C45.9087 51.1974 47.7386 50.4379 49.0882 49.0882C50.4379 47.7386 51.1974 45.9087 51.2 44V20C51.1974 18.0913 50.4379 16.2614 49.0882 14.9118C47.7386 13.5621 45.9087 12.8026 44 12.8H20Z"/><path fill="#fff" d="M32 45.6C29.3102 45.6 26.6808 44.8024 24.4442 43.308C22.2077 41.8136 20.4646 39.6896 19.4352 37.2045C18.4059 34.7194 18.1366 31.9849 18.6613 29.3468C19.1861 26.7086 20.4814 24.2853 22.3833 22.3833C24.2853 20.4814 26.7086 19.1861 29.3468 18.6613C31.9849 18.1366 34.7194 18.4059 37.2045 19.4352C39.6896 20.4646 41.8136 22.2077 43.308 24.4442C44.8024 26.6808 45.6 29.3102 45.6 32C45.5973 35.6061 44.1636 39.0638 41.6137 41.6137C39.0638 44.1636 35.6061 45.5973 32 45.6V45.6ZM32 23.2C30.2595 23.2 28.5581 23.7161 27.111 24.6831C25.6638 25.65 24.5359 27.0244 23.8699 28.6324C23.2038 30.2404 23.0295 32.0098 23.3691 33.7168C23.7086 35.4238 24.5468 36.9918 25.7775 38.2225C27.0082 39.4532 28.5762 40.2914 30.2832 40.6309C31.9902 40.9705 33.7596 40.7962 35.3676 40.1301C36.9756 39.4641 38.35 38.3362 39.3169 36.889C40.2839 35.4419 40.8 33.7405 40.8 32C40.7974 29.6669 39.8694 27.4301 38.2196 25.7804C36.5699 24.1306 34.3331 23.2026 32 23.2V23.2Z"/><path fill="#fff" d="M45.6 21.6C46.9255 21.6 48 20.5255 48 19.2C48 17.8745 46.9255 16.8 45.6 16.8C44.2745 16.8 43.2 17.8745 43.2 19.2C43.2 20.5255 44.2745 21.6 45.6 21.6Z"/><defs><radialGradient id="paint0_radial" cx="0" cy="0" r="1" gradientTransform="translate(-1.2875 62.7) rotate(180) scale(147.795)" gradientUnits="userSpaceOnUse"><stop stop-color="#F9ED32"/><stop offset=".36" stop-color="#EE2A7B"/><stop offset=".44" stop-color="#D22A8A"/><stop offset=".6" stop-color="#8B2AB2"/><stop offset=".83" stop-color="#1B2AF0"/><stop offset=".88" stop-color="#002AFF"/></radialGradient></defs></svg>