<svg xmlns="http://www.w3.org/2000/svg" width="64" height="64" fill="none" viewBox="0 0 64 64"><g clip-path="url(#clip0)"><path fill="#0A66C2" fill-rule="evenodd" d="M56.1808 0C60.4964 0 64 3.50375 64 7.81925V56.1808C64 60.4963 60.4963 64 56.1808 64H7.81925C3.50375 64 0 60.4963 0 56.1808V7.81925C0 3.50375 3.50362 0 7.81925 0H56.1808V0ZM20.0576 52.9098V24.6951H10.6776V52.9098H20.0576ZM53.875 52.9098V36.7299C53.875 28.0632 49.2477 24.0316 43.0774 24.0316C38.1019 24.0316 35.8731 26.768 34.6253 28.6899V24.6951H25.2476C25.372 27.3428 25.2476 52.9098 25.2476 52.9098H34.6251V37.1527C34.6251 36.3092 34.6859 35.4663 34.9344 34.8634C35.6111 33.179 37.1552 31.4341 39.7461 31.4341C43.138 31.4341 44.497 34.0225 44.497 37.8138V52.9098H53.875V52.9098ZM15.431 11.0903C12.2217 11.0903 10.125 13.2001 10.125 15.9655C10.125 18.6727 12.158 20.8407 15.3069 20.8407H15.3674C18.638 20.8407 20.6739 18.6727 20.6739 15.9655C20.6133 13.204 18.6437 11.0963 15.431 11.0903V11.0903Z" clip-rule="evenodd"/></g><defs><clipPath id="clip0"><rect width="64" height="64" fill="#fff"/></clipPath></defs></svg>