<svg xmlns="http://www.w3.org/2000/svg" width="63" height="51" fill="none" viewBox="0 0 63 51"><path fill="#1DA1F2" d="M19.625 50.8C43.2 50.8 56.1 31.25 56.1 14.325C56.1 13.775 56.1 13.225 56.075 12.675C58.575 10.875 60.75 8.6 62.475 6.025C60.175 7.05 57.7 7.725 55.1 8.05C57.75 6.475 59.775 3.95 60.75 0.949998C58.275 2.425 55.525 3.475 52.6 4.05C50.25 1.55 46.925 0 43.25 0C36.175 0 30.425 5.75 30.425 12.825C30.425 13.825 30.55 14.8 30.75 15.75C20.1 15.225 10.65 10.1 4.325 2.35C3.225 4.25 2.6 6.45 2.6 8.8C2.6 13.25 4.875 17.175 8.3 19.475C6.2 19.4 4.225 18.825 2.5 17.875V18.05C2.5 24.25 6.925 29.45 12.775 30.625C11.7 30.925 10.575 31.075 9.4 31.075C8.575 31.075 7.775 31 7 30.85C8.625 35.95 13.375 39.65 18.975 39.75C14.575 43.2 9.05 45.25 3.05 45.25C2.025 45.25 1 45.2 0 45.075C5.65 48.675 12.4 50.8 19.625 50.8Z"/></svg>